<svg xmlns="http://www.w3.org/2000/svg" viewBox="0 0 732.22 210.96"><title>DENNOUAI_LOGO</title><g id="レイヤー_2" data-name="レイヤー 2"><g id="レイヤー_1-2" data-name="レイヤー 1"><path d="M175.11,103.86v57.4c2.65,2,4.89,1.67,8.1.62v-58h16.54V180H124v14.26h81.74v16.14H106.9V122.44c-2.87-2.09-5.11-1.79-8.14-.61v88.59h-17V180.3H5.09V104a67.92,67.92,0,0,1,16.79.06V161.2c2.75,2.07,5,1.72,8.16.58V103.86ZM47.78,162.36H81c.88-4,1.2-7.57-.21-11.25H47.58C47,155.13,46.68,158.51,47.78,162.36ZM157.47,150.9H124v11.41h33.46ZM48.08,121.28c-1.69,3.47-.87,7-.59,11H81a21.26,21.26,0,0,0-.14-11Zm76.45-.18c-1.45,3.76-1.13,7.49-.25,11.24h33.05c.4-4,.95-7.54-.44-11.24Z" style="fill:#d1cfd0"/><path d="M331,87.71h29.56c0,6.61.58,13.26-.15,19.77-.79,7,1.93,11.6,7.45,15.34,3.06,2.07,5.76,4.69,8.6,7.05-3.49,8.53-16.3,9.26-16.12,20.41.15,9,0,18,0,27.37h25.44c0-6-.88-12,.25-17.55,1.17-5.78,7.93-7.33,11.19-11.44,14.33,5,14.07,16.5,12.93,28.74h26c0-10.15,0-20.17,0-30.2,0-3.49-3.07-4.76-5.22-6.6-3.81-3.26-7.73-6.38-13.3-10.95,23.42-7.15,17.16-25.72,18.08-41.93h28.58c1.74,2.67,1,5.39,1,8q.09,46.76,0,93.52c0,16.37-5.25,21.67-21.39,21.68q-46.37,0-92.72,0c-15.62,0-20.55-4.89-20.58-20.54q-.07-48,0-95.92C330.67,92.34,330.87,90.26,331,87.71Z" style="fill:#d2d0d1"/><path d="M10,6.46H195.2c-.09,5.21-.09,5.32-5.31,5.33q-29.58.06-59.17,0h-8.88a27.59,27.59,0,0,0,0,13.12h84V81.85c-8.6,1.53-17,.25-26.06.81v-52H121.28V92.25H84.51V30.69H25.67V82H0V25.25H83.23c1.35-4.75,1.06-8.62.48-13.44h-44c-8.53,0-17.06-.05-25.58,0C10.48,11.85,8.27,11,10,6.46Z" style="fill:#cdcbcc"/><path d="M690.4,210.46H633.16v-113H690.4Z" style="fill:#d1cfd0"/><path d="M545.44,109.32q0,45.51,0,91c0,9.88-.64,10.49-10.31,10.55-2.13,0-4.27-.13-6.38,0-6.33.49-8.61-2.68-8.4-8.63.19-5.59,0-11.18,0-16.77q0-83.43,0-166.86c0-4.07-1.48-9.4,3.78-11.08a26.79,26.79,0,0,1,18.73.48c3.42,1.46,2.49,5.53,2.49,8.66Q545.47,63,545.44,109.32Z" style="fill:#cfcdce"/><path d="M551.6,99.52q0-41.11,0-82.23c0-4.43-.88-9.67,5.65-10.43,6-.7,11.83-.47,14.47,6.65,4.06,11,8.36,21.81,12.35,32.78,1.68,4.65,1.15,9.37-.65,14-3.84,9.89-7.3,19.94-11.33,29.76-2.6,6.33-2.79,12.33.17,18.46.46.95.72,2,1.1,3,13.88,36.44,13.88,36.44-1.16,72.11-3.05,7.24-8.51,9.81-16,7.8-5-1.32-4.58-5.18-4.58-8.9Q551.6,141,551.6,99.52Z" style="fill:#d4d2d2"/><path d="M269.38,210.5c-3.15.38-5.24.83-7.58-.54V8.21h58.12V210.48H290.56a7.71,7.71,0,0,1,.32-6.78h20.93V143.84H269.38Zm.21-194.89v55.9H311.8V15.61ZM312,135.22V80.42h-42.4v54.8Z" style="fill:#cccacb"/><path d="M463,41.26c-.76,14.28-6.66,25.4-19.8,32-12.58,6.36-24.58,4.49-36.33-2.4-4.27-2.51-4.66-5.45-1.71-9.08Q424,38.66,442.93,15.54c3.08-3.77,6-3.66,9.2,0C458.63,22.89,463.28,31,463,41.26Z" style="fill:#d3d1d2"/><path d="M726.35,48v8.78H594.9c-1.26-2.84-.62-5.46-.52-8.78Z" style="fill:#d5d2d3"/><path d="M176.52,60,141,90.15l-1.18-.56c2.76-7.34,5.51-14.69,8.47-22.57-7.45-2.29-14.64-.32-23.12-1.73L161.55,34.9c-1.69,9.1-6.7,16-7.8,25.12Z" style="fill:#cecccd"/><path d="M64.79,37.16,56.44,59.75H80.65c-13.36,11.24-24.74,20.83-38,32l9.3-24.93c-7.54-2.14-15,.06-23-1.68l34.71-29Z" style="fill:#cfcdce"/><path d="M405.08,19.49a16.8,16.8,0,0,1-16.33,16.32c-9,0-17-7.75-17-16.6s8-16.83,16.87-16.84S405.25,10.58,405.08,19.49Z" style="fill:#d1cfd0"/><path d="M633,70.88c2,1.64,4.65,3.44,5.54,5.41L598,117.68c-2-2.09-4.19-4.28-5.88-6Z" style="fill:#c9c7c8"/><path d="M409.62,87.54c.81,16.65.81,16.65-11.39,24.54-10.47-4.92-14.84-12.74-11.27-24.54Z" style="fill:#d1cfd0"/><path d="M684.69,16.3,700.33,0c4.81,5.45,9.64,10.91,14.29,16.19L699.26,31.6Z" style="fill:#d2d0d1"/><path d="M602.9,16,618.13.26l15.32,16.41L618.66,32.18Z" style="fill:#d3d1d2"/><path d="M703.4,146.27,698.08,141l28.3-27.32c1.59.58,3.32,3.16,4.75,5Z" style="fill:#cfcdce"/><path d="M625.85,175.28l-28.16,27.31c-2.26-.84-4.08-3.31-5.72-5.5l28.08-27.3Z" style="fill:#cdcbcc"/><path d="M698.6,175c1.41-2.12,3.49-4.41,4.78-5.09l28.84,27.27-6.28,4.45Z" style="fill:#cecccc"/><path d="M619.52,126.26l5.29,7.8-27.59,26.55-5.58-5.86Z" style="fill:#cdcbcc"/><path d="M343.38,27.86c6.23.52,10.11,4,10.23,10s-3.46,9.87-9.77,10.27a9.85,9.85,0,0,1-10.61-10.25C333.63,31.72,337.36,28.49,343.38,27.86Z" style="fill:#cfcdce"/></g></g></svg>