<svg xmlns="http://www.w3.org/2000/svg" viewBox="0 0 1002.71 166.38"><title>SteppinUp_LOGO</title><g id="レイヤー_2" data-name="レイヤー 2"><g id="レイヤー_1-2" data-name="レイヤー 1"><path d="M882.86,57.29c0,15.72.14,31.44,0,47.16-.22,18.27-12.63,30.75-30.8,31.09-9.55.18-19.11.23-28.66,0-16.68-.42-29.42-11.48-29.8-28-.78-33.58-.37-67.19-.44-100.79,0-.92-.24-2.22.26-2.7,7.49-7.29,16.69-1.77,25-3.1,5.14-.81,4.69,3.65,4.69,7q0,42.54,0,85.08c0,4.62-.11,9.27.32,13.86.79,8.32,6,12.93,13.95,13.37,7.61.43,12.9-3.86,14.83-11.34a41.71,41.71,0,0,0,.82-10.07c.06-29.9.19-59.81-.08-89.71-.06-6.2,1.42-8.52,8.12-8.53,21.76,0,21.76-.29,21.76,21.54Z" style="fill:#eb6d56"/><path d="M643.71,38.65c13.31-11.88,27.34-9.43,40.41-5.38C696.25,37,703,47.15,703.18,60.09c.4,23.1,0,46.21.24,69.32.05,4.9-1.61,6.11-6.35,6.29-23.51.88-23.5,1-23.5-22.38,0-16.64.18-33.28-.08-49.91-.19-11.59-7.17-18.25-17-17-8,1-12.67,6.63-12.76,16.41-.2,21.25-.4,42.52.08,63.77.16,7.41-2.2,9.28-9.36,9.17-20.85-.32-20.86,0-20.86-20.57,0-25.26.22-50.53-.14-75.79-.1-6.91,2-9.57,8.93-8.81a78.49,78.49,0,0,0,12.92,0C640.49,30.32,644.82,30.82,643.71,38.65Z" style="fill:#eb6d56"/><path d="M35.57,135.58c-4.51-.21-9.7.14-14.92-1C8.94,131.92,2.73,124.43.84,113c-.44-2.66-2.28-7.14,2.78-6.88,3.87.21,9.64-3.76,11.59,3.34,1,3.75,2.78,6.88,6.31,8.67,6.93,3.53,14.31,4,19.67-1.84,5.6-6.07,5.35-13.84,0-20.24-9.7-11.55-19.76-22.81-30-33.92C3.25,53.5-.54,43.73.06,31.91,1,14.07,12.48,1.73,30.25.92c7.66-.35,15.36-.62,23,.92C64.6,4.11,71,11.24,73.55,22c.66,2.79,3,7.59-2,8.18-4.11.48-10.18,3.62-12.39-3.68C57.1,19.83,52.74,15.9,45.69,16c-5.68.08-11.19,1.47-13.85,7.37-3.13,7-1.44,13.31,3.4,18.83C45,53.31,54.78,64.39,64.78,75.28,72.31,83.48,75.46,93,75,104c-.86,19.68-12.58,31.31-32.25,31.58C40.59,135.61,38.43,135.58,35.57,135.58Z" style="fill:#eb6d56"/><path d="M120.13,79.33c0-8.61-.25-17.24.09-25.85.2-5.26-.9-8.4-7-7.68-5.4.64-8.45-.69-8.31-7.35.14-6,1.93-8.6,8-7.8,5.6.74,8-1.66,7.26-7.3a11.67,11.67,0,0,1,0-2.77c.61-6.31-3-15.37,1.73-18.36C128.55-2,138,1.09,146.23.88c3.53-.08,3.69,2.5,3.69,5.1,0,5.54.26,11.09-.06,16.62s.67,9.12,7.32,8.07c6.07-1,7.68,1.78,7.83,7.75.17,6.57-2.57,8.15-8.12,7.38-5.94-.82-7.16,2-7.06,7.43.3,16.62.21,33.24.07,49.86-.07,7.91,2.61,14.1,10.44,16.56,7.38,2.32,4,8,4.23,12.23.23,5.7-4.72,3.55-7.55,3.61-25.52.58-36.82-10.49-36.88-35.84C120.12,92.88,120.13,86.1,120.13,79.33Z" style="fill:#eb6d56"/><path d="M583.39,83.79c0,14.78-.17,29.56.09,44.34.1,5.27-1,7.5-7,7.61-22.91.43-22.91.67-22.91-22.11,0-24.94.21-49.88-.14-74.82-.09-6.59,2.11-8.26,8.43-8.28,21.55-.1,21.55-.33,21.55,20.93Z" style="fill:#eb6e56"/><path d="M762.74,21.41c0,4,.18,8,0,12-.73,13.35-7.36,21.81-20.28,25.34-2.93.8-8,4.21-8.91-1.58-.68-4.21-3.74-10.91,4.81-12.46,3.81-.69,6.52-3.33,8.15-6.91,1.85-4.06,2.11-7.86-3.84-7-10.18,1.49-9.74-4.58-9.65-11.61.26-18.46.1-17.91,18.4-18.66C760.69.16,764.53,2.69,763,12.17c-.49,3-.08,6.15-.08,9.24Z" style="fill:#ea6d56"/><path d="M569,.76a64,64,0,0,0,7.33,0c5.78-.68,7.32,2,7.25,7.41-.07,5-.71,8.31-6.88,7.74-4.24-.39-8.55,0-12.83-.06-5.37,0-10.79,1.42-10.6-7.8C553.41-.61,558.41.8,563.45.76,565.29.75,567.12.76,569,.76Z" style="fill:#e86c55"/><path d="M523.68,60c-.33-13.54-10-25.34-22.6-28.15-8.19-1.82-16.51-1.54-24.84-.67-5.3.56-10.84,8-16.05-.4-.36-.57-2.35-.14-3.58-.14-4.94,0-9.9.33-14.79-.09-6.17-.53-8,2-7.89,8,.28,19.72.1,39.46.11,59.18,0,20.35.24,40.7-.1,61-.16,9.3,6.69,7.33,10.73,6.26,6.48-1.74,16.91,7.08,19.22-6.07,1-5.68.37-11.69.15-17.53-.17-4.36,1.44-6,5.88-5.9,8,.25,16,.25,24,0,16.68-.52,29.32-12.74,29.74-29.27C524.09,90.86,524.05,75.43,523.68,60Zm-29.86,45.09c-.51,12.11-15.86,20.28-27.24,15.35-3.13-1.36-2.42-4-2.45-6.23-.11-8.92,0-17.84,0-26.76h0c0-8.61-.24-17.23.07-25.83.33-9.25,5.69-14.88,13.85-15.32,8.47-.45,15.37,5.23,15.73,14.52C494.34,75.59,494.44,90.38,493.82,105.12Z" style="fill:#eb6d56"/><path d="M1002.64,64.28c0-13.79-4.77-25.58-18.08-30.48-13.62-5-28-6.45-41.32,3.23-1.52-2.12-.07-6.77-5.35-6.44-6.75.42-13.55.2-20.32.1-4.25-.06-5,2.31-5,5.91.06,41-.77,82,.53,122.91.38,12.07,12.67,3.89,19.27,5.53,3.78.94,10.27,3,10.21-5.86-.06-7.57-3.57-17.63,1.64-22.12,5.39-4.66,15.34-1.06,23.28-1.47.61,0,1.23,0,1.85,0,20.69-.14,32.77-11.79,33.21-32.48C1002.85,90.16,1002.6,77.22,1002.64,64.28Zm-30.12,39.28c-.66,13.4-15.35,22.2-27.61,16.9-2.75-1.2-2.4-3.32-2.41-5.34,0-17.87-.34-35.75.17-53.6.28-9.61,6.77-15.43,15.13-15.27s14.11,5.9,14.65,15.73c.39,7.06.08,14.17.08,21.25h.05C972.58,90,972.85,96.8,972.52,103.56Z" style="fill:#eb6d56"/><path d="M403.85,60.18c-.21-13.1-6.76-23-18.89-26.93-13.13-4.2-27-5.78-40.3,3.91-1.07-2.11.94-6.78-4.14-6.39-8.46.64-17.15-2.05-25.32,1.65-.74.33-.65,2.88-.65,4.39q0,61.51-.07,123c0,3.81,1.16,5.22,5.22,5.6,24.34,2.22,24.33,2.34,24.58-21.33a21.48,21.48,0,0,0,0-2.78c-.53-4.41,1.39-6,5.79-5.81q12,.38,24.05,0c16.93-.51,29.22-12.3,29.71-29.11C404.26,91,404.09,75.59,403.85,60.18Zm-29.8,43.49c-.26,13.21-15.62,22.35-27.56,16.77-3.12-1.46-2.12-4.12-2.16-6.36-.13-8.62-.05-17.25,0-25.88s-.21-17.26.06-25.88c.32-10.14,6.32-16.22,15.24-16,8.58.19,14.27,6.08,14.45,15.78C374.29,75.94,374.32,89.81,374.05,103.67Z" style="fill:#eb6e56"/><path d="M275,105.75c-3.53.15-6,.79-6.4,4.82-.31,2.88-1.65,5.57-4.21,6.86-10.22,5.15-21.14,4.89-31.33,1-9-3.41-8.44-12.51-8.68-20.66-.15-5.08,1.43-7.27,6.8-7,7.7.34,15.42.08,23.13.08v0c8,0,16-.19,24,.08,4.89.16,6.51-1.84,6.35-6.55-.27-8,.25-16.06-.24-24-1-16.43-11.69-28-27.91-29.2a219,219,0,0,0-34.17.07c-15.8,1.26-26.85,12.67-27.54,28.47s-.71,31.47,0,47.16c.78,16.79,13.45,28.35,30.3,28.71,10.48.22,21,.3,31.45-.09,13.24-.48,21.89-7.45,25.81-20C285.22,106.59,284.17,105.37,275,105.75ZM224.28,66.64c.83-13,5.29-20.19,14.89-20.46,10.07-.28,15,7,15.78,20.46.83,14.56-9.9,7.31-15.59,9.44C233.13,74.59,223.41,80.26,224.28,66.64Z" style="fill:#eb6d56"/></g></g></svg>