<svg xmlns="http://www.w3.org/2000/svg" viewBox="0 0 374.93 39.68"><defs><style>.cls-1{fill:#fe644d;}</style></defs><title>SteppinUp2020_LOGO</title><g id="レイヤー_2" data-name="レイヤー 2"><g id="レイヤー_1-2" data-name="レイヤー 1"><path class="cls-1" d="M18,7.2H14.44Q14,3.59,11,3.58a4,4,0,0,0-2.86.92,3.54,3.54,0,0,0-1,2.72A3.76,3.76,0,0,0,8.27,9.76l7.64,8.59A7.52,7.52,0,0,1,18,23.44v1.82a7,7,0,0,1-2.12,5.07,6.91,6.91,0,0,1-5.09,2.14H7.2a7.34,7.34,0,0,1-5.39-1.81A7.33,7.33,0,0,1,0,25.26H3.62c0,.25,0,.45,0,.59a2.52,2.52,0,0,0,1.14,2.24,4.32,4.32,0,0,0,2.48.76A3.61,3.61,0,0,0,10,27.92a3.91,3.91,0,0,0,.84-2.71,3.67,3.67,0,0,0-1.06-2.53L2.11,14.12A7.47,7.47,0,0,1,0,9V7.2A6.94,6.94,0,0,1,2.11,2.13,6.92,6.92,0,0,1,7.2,0h3.62Q17.59,0,18,7.2Z"/><path class="cls-1" d="M28.88,0h7.21V7.2H39.7v3.62H36.09V25.26a3.21,3.21,0,0,0,1.15,2.67,3.51,3.51,0,0,0,2.13.92h.33v3.62H36.09a7.24,7.24,0,0,1-7.21-7.21V10.82H25.26V7.2h3.62Z"/><path class="cls-1" d="M68.55,21.65H54.11v3.61a3.64,3.64,0,0,0,3.62,3.59h3.62q3.59,0,3.58-3.59h3.62q-.84,7.22-7.2,7.21H54.11a7.24,7.24,0,0,1-7.2-7.21V14.44A7,7,0,0,1,49,9.33,6.92,6.92,0,0,1,54.11,7.2h7.24a6.92,6.92,0,0,1,5.08,2.14,7,7,0,0,1,2.12,5.1ZM54.11,18h7.24V14.44a3.62,3.62,0,0,0-7.24,0Z"/><path class="cls-1" d="M75.76,7.2H83v3.62a3.65,3.65,0,0,1,.91-2.72,3.71,3.71,0,0,1,2.71-.9H90.2a6.94,6.94,0,0,1,5.08,2.14,7,7,0,0,1,2.12,5.1V25.26a7.24,7.24,0,0,1-7.2,7.21H83v7.2h-7.2ZM83,28.85h3.62a3.47,3.47,0,0,0,2.54-1.06,3.41,3.41,0,0,0,1.08-2.53V14.44a3.42,3.42,0,0,0-1.08-2.54,3.47,3.47,0,0,0-2.54-1.06A3.43,3.43,0,0,0,84,11.89,3.48,3.48,0,0,0,83,14.44Z"/><path class="cls-1" d="M104.6,7.2h7.21v3.62a3.65,3.65,0,0,1,.91-2.72,3.71,3.71,0,0,1,2.71-.9h3.62a6.94,6.94,0,0,1,5.08,2.14,7,7,0,0,1,2.12,5.1V25.26a7.24,7.24,0,0,1-7.2,7.21h-7.24v7.2H104.6Zm7.21,21.65h3.62A3.47,3.47,0,0,0,118,27.79a3.41,3.41,0,0,0,1.08-2.53V14.44A3.42,3.42,0,0,0,118,11.9a3.61,3.61,0,0,0-6.16,2.54Z"/><path class="cls-1" d="M133.45,3.62V0h7.21V3.62Zm0,28.85V7.2h7.21V32.47Z"/><path class="cls-1" d="M147.89,32.47V7.2h7.21v3.62a4.44,4.44,0,0,1,1.12-2.72,3.39,3.39,0,0,1,2.5-.9h3.61a7,7,0,0,1,5.09,2.14,7,7,0,0,1,2.12,5.1v18h-7.21v-18a3.45,3.45,0,0,0-1.07-2.55,3.61,3.61,0,0,0-6.16,2.55v18Z"/><path class="cls-1" d="M176.74,0H184V7.2q0,6.42-7.21,7.24V10.82a3.36,3.36,0,0,0,3.62-3.62h-3.62Z"/><path class="cls-1" d="M212.91,0h7.21V25.27a7.29,7.29,0,0,1-7.21,7.21h-7.24a7.26,7.26,0,0,1-7.2-7.21V0h7.2V25.27a3.61,3.61,0,0,0,6.18,2.52,3.44,3.44,0,0,0,1.06-2.52Z"/><path class="cls-1" d="M227.32,7.21h7.2v3.62a3.65,3.65,0,0,1,.92-2.72,3.7,3.7,0,0,1,2.7-.9h3.62a6.89,6.89,0,0,1,5.08,2.14,7,7,0,0,1,2.12,5.1V25.27a7.26,7.26,0,0,1-7.2,7.21h-7.24v7.2h-7.2Zm7.2,21.65h3.62a3.55,3.55,0,0,0,2.55-1.06,3.44,3.44,0,0,0,1.07-2.53V14.45a3.48,3.48,0,0,0-1.07-2.55,3.54,3.54,0,0,0-2.55-1.05,3.43,3.43,0,0,0-2.55,1.05,3.48,3.48,0,0,0-1.07,2.55Z"/><path class="cls-1" d="M270.35,7.21h-3.61q.84-7.2,7.2-7.2h7.24a6.93,6.93,0,0,1,5.08,2.13,7,7,0,0,1,2.12,5.07V9q0,3.73-7,9.69l-.48.42q-7,6-7,9.38v.33h14.44v3.62H266.74V28.86q0-3.75,7-9.71l.49-.42q7-6,7-9.69V7.21a3.4,3.4,0,0,0-1.09-2.53,3.51,3.51,0,0,0-2.53-1h-3.62Q270.61,3.63,270.35,7.21Z"/><path class="cls-1" d="M302.79,0H310a6.94,6.94,0,0,1,5.09,2.13,7,7,0,0,1,2.12,5.07V25.27A7.27,7.27,0,0,1,310,32.48h-7.23a7.27,7.27,0,0,1-7.21-7.21V7.21a6.91,6.91,0,0,1,2.13-5.08A6.93,6.93,0,0,1,302.79,0ZM310,6.6a3.43,3.43,0,0,0-3.55-3,3.51,3.51,0,0,0-2.56,1,3.45,3.45,0,0,0-1.06,2.53V19.49Zm-7.09,19.23A3.78,3.78,0,0,0,304,28.1a3.56,3.56,0,0,0,2.38.76A3.62,3.62,0,0,0,310,25.27V13Z"/><path class="cls-1" d="M328.05,7.21h-3.62q.85-7.2,7.21-7.2h7.23A6.94,6.94,0,0,1,344,2.14a7,7,0,0,1,2.12,5.07V9q0,3.73-7,9.69l-.47.42q-7,6-7,9.38v.33h14.44v3.62H324.43V28.86q0-3.75,7-9.71l.49-.42q7-6,7-9.69V7.21a3.43,3.43,0,0,0-1.08-2.53,3.51,3.51,0,0,0-2.53-1h-3.62Q328.31,3.63,328.05,7.21Z"/><path class="cls-1" d="M360.48,0h7.24a6.91,6.91,0,0,1,5.08,2.13,6.92,6.92,0,0,1,2.13,5.07V25.27a7.29,7.29,0,0,1-7.21,7.21h-7.24a7.26,7.26,0,0,1-7.2-7.21V7.21a6.94,6.94,0,0,1,2.12-5.08A7,7,0,0,1,360.48,0Zm7.17,6.59a3.41,3.41,0,0,0-3.55-3,3.5,3.5,0,0,0-2.55,1,3.46,3.46,0,0,0-1.07,2.53V19.49Zm-7.08,19.23a3.78,3.78,0,0,0,1.16,2.27,3.55,3.55,0,0,0,2.37.76,3.62,3.62,0,0,0,3.62-3.59V13Z"/></g></g></svg>