<svg xmlns="http://www.w3.org/2000/svg" viewBox="0 0 808.27 156.62"><title>U-LABO_LOGO</title><g id="レイヤー_2" data-name="レイヤー 2"><g id="レイヤー_1-2" data-name="レイヤー 1"><path d="M125.32,54.82q0,22.2,0,44.4a70.89,70.89,0,0,1-3.62,22.19c-5.67,17.2-17.36,28.19-34.92,32.37a93,93,0,0,1-55.33-3.22C16.12,144.78,6,133.9,1.9,117.82A71.39,71.39,0,0,1,0,100.52Q0,53.34,0,6.16C0,2.49,0,2.47,3.68,2.45c6.48,0,13,0,19.43,0,3,0,3,.07,3,3.13,0,4.89,0,9.78,0,14.67q0,39.06,0,78.11a59.44,59.44,0,0,0,4.44,22.78c7.27,17.67,23.26,26.84,39.6,26.47a60.23,60.23,0,0,0,16.42-2.19,36.34,36.34,0,0,0,22-18.14c4.65-8.54,6.65-17.79,6.93-27.39.29-10.3.19-20.61.21-30.92q0-30.33,0-60.66v-2c0-3.86,0-3.92,3.9-3.88,6.48.06,5.78-.9,5.79,5.58q0,23.39,0,46.78Z" style="fill:#00a0e9"/><path d="M219.54,78V7.88c0-.93.06-1.86,0-2.77-.13-1.8.48-2.63,2.45-2.61,7.14.08,14.27.06,21.41,0,1.67,0,2.46.58,2.35,2.3-.06,1.05,0,2.11,0,3.17q0,66.18,0,132.36c0,6-.73,5.37,5.18,5.38q34.29,0,68.57,0c1.06,0,2.12,0,3.17,0,1.49-.06,2.22.6,2.13,2.11,0,.26,0,.53,0,.79,0,6.26.39,5.19-4.92,5.19q-48,.06-95.92,0c-4.92,0-4.42.49-4.42-4.47Q219.52,113.69,219.54,78Z" style="fill:#00a0e9"/><path d="M148.24,103.72c0-2.89-.08-5.79-.08-8.69,0-4-.33-4,3.8-3.94h23.73c5.8,0,11.6.06,17.4,0,2,0,2.8.66,2.71,2.73-.14,3.29-.06,6.58-.07,9.88-.55.81-1.4.59-2.16.59H150.45C149.68,104.26,148.85,104.44,148.24,103.72Z" style="fill:#00a0e9"/><path d="M589.29,75.27a15.06,15.06,0,0,1-2.23,0c-.55-.09-1.4-.29-1.07-1.1s1.07-.42,1.68-.35C587.82,74.71,588.81,74.71,589.29,75.27Z" style="fill:#1f789f"/><path d="M806.51,58.49c-5.64-26.05-20.5-44.34-45.94-53a96,96,0,0,0-64.53.3c-23.42,8.3-38.6,24.79-45,48.89a92.78,92.78,0,0,0,.72,50.1c6.59,23.17,21.42,38.9,44.22,46.52a102.75,102.75,0,0,0,63.57.65c23.69-7.2,38.83-23.18,45.49-47.08A86.06,86.06,0,0,0,808.24,80,91.59,91.59,0,0,0,806.51,58.49ZM771.38,118c-4.51,11.39-12.27,20.35-23.71,25.5-17.76,8-42.28,5.2-56.88-15.86-6.61-9.53-10.08-20.26-11.93-31.58a128.59,128.59,0,0,1-1.35-16.7c.09-15.51,2.53-29.44,9.26-42.39C691.55,27.73,698,20,707.07,14.72a42.64,42.64,0,0,1,49.2,4.35A53.14,53.14,0,0,1,771.54,40C782,66,781.61,92.1,771.38,118Z" style="fill:#00a0e9"/><path d="M629,110.92c-.6-12.66-6.21-22.17-17.24-28.4a63.55,63.55,0,0,0-22.46-7.25c-1.14-.52-2.42-.57-3.55-1.11a1.65,1.65,0,0,0,1.93-.37,49.12,49.12,0,0,0,14.12-5,27.72,27.72,0,0,0,13.5-15,35,35,0,0,0,1.21-22.16c-3.93-14-13.65-22.22-27.27-26.1-8.69-2.48-17.68-3.06-26.67-3.1-16.91-.09-33.82,0-50.73,0-.66,0-1.33,0-2,0-1.78-.16-2.33.76-2.23,2.38.06.92,0,1.85,0,2.77V65.46q0,42.41,0,84.81c0,3.49,0,3.56,3,3.56,21.14,0,42.28.14,63.42-.15,8.29-.11,16.63-.75,24.7-3,8.68-2.46,16.47-6.47,22.39-13.49C627.51,129.57,629.45,120.64,629,110.92ZM534,40.81q0-13.26,0-26.53c0-3.47.06-3.54,3.54-3.52,9.11.07,18.22-.25,27.32.22,13.64.7,23.11,9.33,25.3,22.85a45.84,45.84,0,0,1-.37,16.52c-2.41,12-10.61,19.14-23.12,20.24-10,.88-20.06.22-30.08.45-2.19,0-2.63-1-2.62-2.9C534,59,534,49.92,534,40.81Zm66.16,84.62c-2.23,8.59-7.76,14.22-16,17.2a56.73,56.73,0,0,1-18.29,3c-9.51.18-19,.07-28.55,0-3.19,0-3.25-.06-3.26-3.38q0-15.06,0-30.13,0-14.86,0-29.73C534,79,534,79,537.53,79c9.51,0,19-.19,28.54.28a48.77,48.77,0,0,1,15.43,3.24c10.72,4.19,17.26,12,19.25,23.28A45.83,45.83,0,0,1,600.13,125.43Z" style="fill:#00a0e9"/><path d="M485,150.58q-8.5-20.7-17-41.39Q446.73,57.55,425.51,5.89c-1.67-4.07-1-3.46-5.07-3.48q-10.11-.06-20.22,0c-4.26,0-3.67-.58-5.41,3.61Q368.4,69.88,342,133.73c-2.67,6.45-5.3,12.91-8.22,20,3.53,0,6.43-.1,9.32,0,1.92.09,2.49-.77,2.7-2.51a27.34,27.34,0,0,1,2-6.82c5.71-13.93,11.35-27.88,17.09-41.79,1.51-3.66.72-3.45,5.12-3.45h61c.53,0,1.06,0,1.59,0a2.29,2.29,0,0,1,2.66,1.8c.28.88.66,1.72,1,2.58,6.18,15.73,12.4,31.44,18.5,47.19.82,2.12,1.8,3.09,4.26,3,8.19-.17,16.38-.06,24.58-.08.72,0,1.56.27,2.24-.74C485.59,152.28,485.3,151.42,485,150.58ZM430.8,91.47a3.66,3.66,0,0,1-2.58.5q-27.81,0-55.6,0a3.7,3.7,0,0,1-2.59-.5,1.31,1.31,0,0,1-.5-.66l24.52-59.68,6.59-16c1.52.8,1.6,2.12,2,3.17q14.14,35.92,28.23,71.86a3.88,3.88,0,0,0,.41.67A1.31,1.31,0,0,1,430.8,91.47Z" style="fill:#00a0e9"/></g></g></svg>