<svg xmlns="http://www.w3.org/2000/svg" viewBox="0 0 1074.39 115.93"><title>UKARI-SALON_LOGO</title><g id="レイヤー_2" data-name="レイヤー 2"><g id="レイヤー_1-2" data-name="レイヤー 1"><path d="M1002.35,104.21c1.5,7.33-1.5,9.18-8.76,9-18.44-.5-18.23-.11-18.24-18.38q0-43.26-.64-86.54c-.07-4.54,1-6.62,5.69-6a3.17,3.17,0,0,0,.87,0c14.52-2.4,24.31,1.74,31.72,16.1,9,17.42,21.4,33.07,32.53,49.78,2.37-2.12,1.29-4.53,1.28-6.61-.09-17.77-.11-35.55-.55-53.32-.12-4.6,1.09-6.27,5.75-6,6.68.36,14.92-2.15,19.69.92,5.49,3.54.88,12.14,1.06,18.5.83,28.83-.84,57.69,1,86.51.23,3.45-.72,4.85-4.13,4.82-7-.07-14-.11-21,0-3.13.06-4.5-1.67-6-4.06-12.72-19.85-25.6-39.61-38.43-59.39-2.09-.39-2.44,1-2.41,2.52C1002.11,69.46,1001,86.85,1002.35,104.21Z" style="fill:#f8b62b"/><path d="M145.73,45.67c12.85-14.39,25-25.62,34.87-38.88,2-2.72,3.78-4.68,7.62-4.57,9.57.28,19.15.09,31,.09-5.1,5.36-8.93,9.41-12.78,13.44-8.07,8.42-15.89,17.1-24.34,25.13-4.39,4.18-3.91,7.06-.68,11.64,12.93,18.34,25.44,37,38.09,55.5.76,1.12,1.42,2.31,3,4.94-11.15,0-20.9,0-30.65,0-3.87,0-4.36-3.18-5.81-5.58Q173,85.71,159.82,64.13c-12.37,6.4-14.95,16.45-14.32,29.18,1,20.28.39,20.18-20.12,19.78-5-.1-6.86-.81-6.59-6.78q2.19-48.93,0-97.9c-.22-4.49.5-6,5.32-6.22,21.78-1,21.76-1.14,21.64,20.25C145.7,29.28,145.73,36.12,145.73,45.67Z" style="fill:#f8b62b"/><path d="M589.47,0c18.26.13,33.17,4.33,41.66,20.74,4.62,8.91,3.72,10.36-5.92,11.2-3.48.3-7,.69-10.42,1.2-4.73.7-8.25,1-11.06-4.85-3.79-7.86-18.24-8.87-24.7-2.76-6.12,5.78-3.55,13.52,5.88,16.21,9,2.55,18.3,3.74,27.14,6.57C631.11,54.43,639.47,70,635,89.39c-2.78,12-10.67,19.28-21.84,22.92a68.46,68.46,0,0,1-46.28-1.14c-12.06-4.52-18.21-13.92-21.05-26-.92-3.89,0-6,4.57-6.07a106.16,106.16,0,0,0,12.16-1.25c5.62-.68,9.81-1.11,12.56,6.38,3.67,10,22,12.12,29.57,4.53,5.9-6,3.56-15.21-5.09-17.93-9.43-3-19.26-4.63-28.7-7.53-14.2-4.35-22.38-15.52-22.6-29.8-.21-14,7.22-24.67,21.18-29.89A75.48,75.48,0,0,1,582.07.46,48.56,48.56,0,0,1,589.47,0Z" style="fill:#f8b62b"/><path d="M101,43.25c-.86,11.83,1.61,26.19-1.94,40.29-3.36,13.37-11.28,22.89-24.18,27.81-16.17,6.16-32.47,6-48.66-.16C13.05,106.18,5.83,96.05,3,82.75A95.1,95.1,0,0,1,1.15,64.52c-.26-14.28-.3-28.58,0-42.86.14-6.25-3.32-15.8,1.13-18C8.62.46,17.57,2.34,25.4,2.41c5.09,0,2.84,4,2.82,6.51-.1,19.82-.71,39.64-.37,59.46.29,16.68,7.44,24.14,22,24.68,15.54.57,24.28-7.25,24.52-22.93q.47-30.16-.2-60.35c-.13-5.49.56-8.13,6.75-7.56,6.64.6,15-1.89,19.52,1.34,4.3,3.09.06,11.8.5,18.07S101,34.46,101,43.25Z" style="fill:#f8b62b"/><path d="M766.23,58.07c0-16.61.17-33.22-.12-49.83-.08-4.59,1.17-5.87,5.77-6.05,22.06-.85,22-1,22,20.86-.06,19.24.35,38.48-.2,57.7-.22,7.59,2.38,9.3,9.41,9,13.09-.65,26.23-.1,39.32-.71,5.07-.23,5.7,1.63,5.85,5.89.65,18.45.77,18.3-17.31,18.19-19.23-.12-38.47-.23-57.7.27-6,.16-7.16-1.5-7-7.2.45-16,.16-32.06.16-48.08Z" style="fill:#f8b62b"/><path d="M486.85,55.27c0,17.48-.17,35,.13,52.44.07,3.76-.54,5.4-4.46,5.3-7.28-.18-15.84,2.2-21.52-.84-6.64-3.56-1.24-12.49-1.45-19-.93-28.54.72-57.13-1-85.66-.23-3.7.38-5.4,4.43-5.27,7.28.23,16-2.35,21.48.83,6.48,3.77,1,13,1.57,19.83.83,10.72.22,21.55.22,32.34Z" style="fill:#f8b62b"/><path d="M440.2,98c-5.94-13-8.45-28.13-21.83-37.23C430.21,56.58,436.15,48.37,437,36.4c1.38-20.47-9.6-32.91-31-33.81-17.17-.72-34.4-.11-51.59-.5-5.45-.12-5.13,2.63-5.11,6.49q.32,43.72.31,87.45c0,17-.09,16.63,17.16,17.13,7.93.23,12-.81,9.87-10.21-1.26-5.57-.81-11.64-.37-17.43.35-4.66-2.93-11.55,2.13-13.55,6.27-2.48,13.79-1.68,20.25,2,3.49,2,5.42,5.24,6.86,8.79,2.31,5.65,4.61,11.32,6.64,17.08C416.77,113,416.7,113,430.21,113,446.6,113,447,112.84,440.2,98ZM400.67,47.6c-6.57.9-13.31.53-20,.73-3.34.1-4.74-1.56-4.57-4.81.08-1.45,0-2.9,0-4.36-.08-14.33-.08-14.33,14.08-14.1a87.23,87.23,0,0,1,9.57.06c6,.67,9.4,4.1,9.56,10.33S407.19,46.7,400.67,47.6Z" style="fill:#f8b62b"/><path d="M951.2,21.82C938,2.72,918.73-2.19,897.27,1c-21.27,3.19-35,16.06-40.81,37-7.82,28.42,1.44,58.19,22.23,69.9,18.69,10.52,38,10.82,56.65.1,19.2-11.06,25-29.6,25.55-50.48C961.06,44.7,958.56,32.49,951.2,21.82ZM927.94,80.38c-8.88,16.7-31.79,16.32-41.35-.09-4.09-7-5.19-14.7-5.07-22.66-.17-8,1-15.65,5.08-22.65,9.53-16.16,32.8-16.38,41.48.17C935.82,49.92,935.76,65.67,927.94,80.38Z" style="fill:#f8b62b"/><path d="M754.3,108.08q-14.7-40.59-29.46-81.16c-3-8.11-3.91-19.32-9.74-23.32-6-4.12-16.84-1.16-25.57-1.29a20.65,20.65,0,0,1-2.61,0c-3.58-.52-5.13,1.28-6.16,4.53-2.63,8.31-5.5,16.54-8.42,24.75-9.53,26.78-19.13,53.54-29.1,81.42,8.42,0,15.93-.32,23.4.1,5.43.31,7.45-1.64,8.62-7,4.08-18.56,4.33-18.5,22.64-18.5,20.93,0,21,0,26.37,20.25.85,3.24,1.89,5.23,5.63,5.16,8.39-.14,16.79,0,25.84,0C755.09,110.75,754.77,109.38,754.3,108.08ZM708.24,65.15a6.18,6.18,0,0,0-.86,0c-20.86,2-20.87,2-14.83-17.76,1.94-6.35,3.92-12.68,5.89-19l1.84-.36c3.54,11.18,7,22.38,10.67,33.53C711.86,64.36,710.9,65.28,708.24,65.15Z" style="fill:#f8b62b"/><path d="M337,106.7c-10.9-29.44-21.52-59-32.24-88.5C299,2.31,299,2.31,282.47,2.31c-4.08,0-8.17.22-12.23-.06s-5.37,1.5-6.63,5.11c-11.3,32.39-22.58,64.79-34.54,96.93-2.95,7.92-1.19,9.47,6.4,8.79,6.64-.59,14.42,1.62,19.71-1.17s4.37-11.39,6.06-17.41c1.6-5.7,4.36-7.28,9.86-7a218.39,218.39,0,0,0,23.59,0c5.27-.29,7.59,1.65,9.23,6.61,2,6.17.7,15.09,6.41,18,5.38,2.71,13.09.81,19.78.92a25.42,25.42,0,0,1,2.62,0C338.38,113.73,338.81,111.6,337,106.7ZM275,65.22c-4.44.14-4.58-1.66-3.4-5.26,3.5-10.68,6.71-21.45,10.78-34.61l12.67,39.82C287.73,65.17,281.36,65,275,65.22Z" style="fill:#f8b62b"/></g></g></svg>