<svg xmlns="http://www.w3.org/2000/svg" viewBox="0 0 652.89 152.42"><title>UKARI_LOGO</title><g id="レイヤー_2" data-name="レイヤー 2"><g id="レイヤー_1-2" data-name="レイヤー 1"><path d="M293.28,1.53c-2.22,2.3-4.12,4.36-6.12,6.32C271.22,23.57,256.05,40,240.51,56.14c-3.25,3.36-3,2.92-.57,6.56q24.57,36.21,49.18,72.38c3,4.37,6.22,8.55,9.28,12.74-.47,1.58-1.66,1.05-2.52,1.05-13.1,0-26.2,0-39.3,0-2,0-3.79.08-4.92-2.28-7.79-16.36-18.2-31.18-27.61-46.59-3.53-5.79-7.2-11.49-11.16-17.78C207.2,88,201.75,93.45,196.28,98.91a4.63,4.63,0,0,0-1.07,3.69c.24,14.24-.68,28.51,1,42.72.39,3.32.24,3.54-2.94,3.56q-15.66.08-31.33,0c-3.22,0-3.28-.17-3.12-3.46,2.23-43.9.8-87.83.81-131.74a74.85,74.85,0,0,0-.84-9.9c-.35-2.52.66-3.15,3-3.13,10.44.08,20.89,0,31.33,0,3.4,0,3.44.14,3.1,3.37-1.79,17-.72,34.12-.92,51.18a3.77,3.77,0,0,0,.27,1c1.5.57,2-.79,2.72-1.53Q216,35.83,233.58,16.89a89.05,89.05,0,0,0,10.6-13.78c.94-1.53,1.94-2.46,3.9-2.45,14.58.08,29.17.07,43.76.11C292.11.77,292.38,1,293.28,1.53Z" style="fill:#f8b62b"/><path d="M0,.7c12.51,0,24.25,0,36,0,2.09,0,2.45,1,2.31,2.78-2.11,28.8-.45,57.64-1,86.45a44.5,44.5,0,0,0,1.05,10.36c2.45,11.39,9.26,18.49,20.79,20.63a48.76,48.76,0,0,0,18.3,0C90.16,118.38,97.45,110.18,99,97a74.13,74.13,0,0,0,.6-8.93c-.08-23.86.36-47.72-.26-71.58-.11-4.13-.45-8.26-.8-12.38-.27-3.24-.34-3.34,3-3.36,10.61,0,21.21,0,31.82,0l1.49,0c1.57,0,1.89.92,1.78,2.27-2.22,25.31-.67,50.67-1.13,76-.11,6.12,0,12.24-.48,18.37-2.34,29.17-20.53,49.06-49.67,53.63A103.15,103.15,0,0,1,43,149.31c-23.5-6.15-36.25-21.83-40.38-45.23A86.54,86.54,0,0,1,1.41,88.74q0-24.1,0-48.22C1.41,27.45,1.77,14.37,0,.7Z" style="fill:#f8b62b"/><path d="M613.9,1.43a3.93,3.93,0,0,1,3-.74c10.76,0,21.53,0,32.3,0,3.74,0,3.56.08,3.33,3.9-.44,7.1-.89,14.21-.91,21.32q-.13,48.71,0,97.39c0,7.6,0,15.24,1.14,22.79.29,1.87-.22,2.81-2.26,2.8q-17.14,0-34.29,0c-2,0-2.44-.81-2.25-2.77,1.93-20,1.07-40,1.19-60.07.1-17.06,0-34.12,0-51.18C615.3,23.66,614.92,12.46,613.9,1.43Z" style="fill:#f8b62b"/><path d="M596.93,145c-3.82-7.91-7.12-16.05-10.53-24.14q-5.31-12.59-10.91-25c-3.12-7-7.43-12.94-14.92-15.86-.24-.09-.34-.52-.6-1l4.93-2c9.69-4,15.85-11.12,18.72-21.16a54.16,54.16,0,0,0,1.9-16.22c-.4-19.92-12-33.75-31.6-37.74A98.16,98.16,0,0,0,535.12.37c-17.89-.13-35.79,0-53.69-.06C477.62.31,473.8.28,470,0c-2.58-.18-3.12.94-2.92,3.21.46,5.28,1,10.55,1,15.87,0,30.5.07,61,0,91.51,0,11.43.4,22.88-.92,34.28-.46,3.92-.27,4,4,4q13.93,0,27.86,0c6.5,0,6.25.84,5.6-6.23-1.45-15.72-.43-31.47-.76-47.21,0-1.86.65-2.76,2.59-2.71,6.13.14,12.27-.24,18.4.31,6.44.57,11.19,3.86,14.69,9a38.6,38.6,0,0,1,3.69,7c4.81,11.81,9.42,23.69,12.62,36.07.94,3.65,1,3.68,5.08,3.69q16.9,0,33.82,0c1.07,0,2.31.43,3.19-.62C598.14,147,597.42,146,596.93,145ZM534.72,61.8c-9.4,1.24-18.87.3-28.31.55-2,.06-2.49-1.06-2.48-2.81,0-8.62.08-17.23,0-25.85,0-2.52,1.05-3.09,3.28-3,4.47.1,8.95,0,13.42,0v.06c4.31,0,8.63-.14,12.93,0,9.43.36,14.63,5.46,15,14.44C548.83,54,543.45,60.65,534.72,61.8Z" style="fill:#f8b62b"/><path d="M450.08,137.52C434,92.81,417.1,48.41,402.17,3.3c-.61-1.84-1.48-2.66-3.49-2.65q-20.64.1-41.27,0c-2.05,0-3,.82-3.39,2.73a94.67,94.67,0,0,1-4,13.3q-18.9,52.59-37.75,105.18c-3.16,8.84-6.21,17.72-9.91,26.29.56.35.82.65,1.08.65,12.59,0,25.19,0,37.78.14,2.7,0,2.89-1.76,3.15-3.51,1.45-9.56,5-18.52,7.67-27.74.69-2.42,1.88-3.35,4.51-3.32,14.42.12,28.84,0,43.26.07,3.76,0,3.76,0,5,3.87a194.71,194.71,0,0,1,7.23,26.31c.78,4.24.88,4.26,4.92,4.27q16.9,0,33.81,0c1.07,0,2.31.42,3.38-.94C452.83,144.54,451.36,141.07,450.08,137.52ZM361.81,84.17c5.36-17.29,10.63-34.26,15.89-51.23h.84c5.36,16.93,10.73,33.87,16.24,51.23Z" style="fill:#f8b62b"/></g></g></svg>